<svg xmlns="http://www.w3.org/2000/svg" width="33.117" height="28.197"><path fill="#fff" d="M32.925 5.378a1.094 1.094 0 0 0-.826-.411l-20.543-.8a1.024 1.024 0 0 0-1.107.919 1 1 0 0 0 1.016 1l19.152.747-3.765 10.63H10.094L7.067 2.552a.99.99 0 0 0-.657-.721L1.451.067A1.1 1.1 0 0 0 .073.61a.935.935 0 0 0 .601 1.242l4.409 1.567 3.081 15.179a1.04 1.04 0 0 0 1.045.788h.511l-1.167 2.932a.736.736 0 0 0 .109.732.916.916 0 0 0 .724.34h.814a2.721 2.721 0 0 0-.819 1.923 3.051 3.051 0 0 0 3.188 2.884 3.051 3.051 0 0 0 3.188-2.884 2.721 2.721 0 0 0-.818-1.923h6.95a2.72 2.72 0 0 0-.819 1.923 3.051 3.051 0 0 0 3.188 2.884 3.05 3.05 0 0 0 3.188-2.884 2.721 2.721 0 0 0-.818-1.923h1a.805.805 0 1 0 0-1.6H10.646l.956-2.4h16.025a1.057 1.057 0 0 0 1.012-.668l4.427-12.5a.884.884 0 0 0-.141-.844ZM12.574 26.595a1.288 1.288 0 1 1 0-2.563 1.288 1.288 0 1 1 0 2.563Zm11.688 0a1.288 1.288 0 1 1 1.417-1.282 1.356 1.356 0 0 1-1.417 1.282Z" data-name="Path 417"/></svg>